<?xml version="1.0" encoding="UTF-8" standalone="no"?>
<!DOCTYPE svg PUBLIC "-//W3C//DTD SVG 1.1//EN" "http://www.w3.org/Graphics/SVG/1.1/DTD/svg11.dtd">
<svg width="100%" height="100%" viewBox="0 0 500 100" version="1.1" xmlns="http://www.w3.org/2000/svg" xmlns:xlink="http://www.w3.org/1999/xlink" xml:space="preserve" xmlns:serif="http://www.serif.com/" style="fill-rule:evenodd;clip-rule:evenodd;stroke-linejoin:round;stroke-miterlimit:1.41421;">
    <g transform="matrix(1.90514,0,0,1.90514,-533.175,-11.315)">
        <path d="M339.522,13.185C337.521,12.087 335.27,11.484 332.869,11.484C325.117,11.484 318.823,17.785 318.823,25.538C318.823,33.24 325.117,39.534 332.869,39.534C335.27,39.534 337.521,38.935 339.522,37.886L339.522,41.036C339.522,43.59 337.421,45.738 334.82,45.738C333.219,45.738 331.769,44.939 330.918,43.64L329.218,40.986L322.969,44.939L324.718,47.686C326.967,51.084 330.768,53.084 334.82,53.084C341.323,53.084 346.618,47.936 346.867,41.487L346.867,11.887L339.522,11.887L339.522,13.185ZM332.869,32.19C329.168,32.19 326.217,29.189 326.217,25.538C326.217,21.836 329.168,18.885 332.869,18.885C336.521,18.885 339.522,21.836 339.522,25.538C339.522,29.189 336.521,32.19 332.869,32.19Z" style="fill-rule:nonzero;"/>
    </g>
    <g transform="matrix(1.90514,0,0,1.90514,-533.175,-11.315)">
        <path d="M358.017,13.185L358.017,13.135L358.017,11.886L350.473,11.886L350.473,38.984L358.017,38.984L358.017,37.934L358.017,25.984C358.017,23.784 358.567,18.634 363.716,18.584L365.166,18.584L365.166,11.537L364.116,11.537C361.766,11.537 359.716,12.086 358.017,13.185Z" style="fill-rule:nonzero;"/>
    </g>
    <g transform="matrix(1.90514,0,0,1.90514,-533.175,-11.315)">
        <path d="M381.219,39.584C383.62,39.584 385.921,38.935 387.872,37.886L387.872,39.534L395.268,39.534L395.268,11.39L387.872,11.39L387.872,25.54C387.872,29.19 384.92,32.19 381.219,32.19C377.367,32.19 375.618,28.84 375.618,25.54L375.618,11.39L368.223,11.39L368.223,25.54C368.223,33.69 373.719,39.584 381.219,39.584Z" style="fill-rule:nonzero;"/>
    </g>
    <g transform="matrix(1.90514,0,0,1.90514,-533.175,-11.315)">
        <path d="M429.718,11.335C426.117,11.335 423.02,12.736 420.722,15.034C418.622,12.686 415.721,11.335 412.169,11.335C410.118,11.335 408.217,11.787 406.568,12.586L406.568,11.384L399.173,11.384L399.173,38.984L406.568,38.984L406.568,25.384C406.568,22.084 408.267,18.734 412.169,18.734C415.921,18.734 416.721,22.334 416.721,25.384L416.721,38.984L424.118,38.984L424.118,25.384C424.118,22.084 425.867,18.734 429.718,18.734C433.52,18.734 434.321,22.334 434.321,25.384L434.321,38.984L441.669,38.984L441.669,25.384C441.669,16.884 436.972,11.335 429.718,11.335Z" style="fill-rule:nonzero;"/>
    </g>
    <g transform="matrix(1.90514,0,0,1.90514,-533.175,-11.315)">
        <path d="M460.669,39.534C468.372,39.534 474.669,33.24 474.669,25.538C474.669,17.785 468.372,11.484 460.669,11.484C458.268,11.484 455.967,12.087 454.018,13.185L454.018,11.887L446.623,11.887L446.623,47.684L454.018,47.684L454.018,37.886C455.967,38.935 458.268,39.534 460.669,39.534ZM460.669,18.885C464.32,18.885 467.321,21.836 467.321,25.538C467.321,29.189 464.32,32.19 460.669,32.19C456.967,32.19 454.018,29.189 454.018,25.538C454.018,21.836 456.967,18.885 460.669,18.885Z" style="fill-rule:nonzero;"/>
    </g>
    <g transform="matrix(1.90514,0,0,1.90514,-541.404,-11.5174)">
        <path d="M500.268,11.39L499.568,11.39L492.97,27.74L485.721,11.39L479.122,11.39L477.573,11.39L478.123,12.84L488.97,37.19L484.771,47.79L492.82,47.79L507.067,12.84L507.667,11.39L506.117,11.39L500.268,11.39Z" style="fill-rule:nonzero;"/>
    </g>
</svg>
