<?xml version="1.0" encoding="UTF-8" standalone="no"?>
<!DOCTYPE svg PUBLIC "-//W3C//DTD SVG 1.1//EN" "http://www.w3.org/Graphics/SVG/1.1/DTD/svg11.dtd">
<svg width="100%" height="100%" viewBox="0 0 2500 2500" version="1.1" xmlns="http://www.w3.org/2000/svg" xmlns:xlink="http://www.w3.org/1999/xlink" xml:space="preserve" xmlns:serif="http://www.serif.com/" style="fill-rule:evenodd;clip-rule:evenodd;stroke-linejoin:round;stroke-miterlimit:2;">
    <g transform="matrix(2.16255,0,0,2.16255,-1363.37,-1181.37)">
        <g>
            <g transform="matrix(24.5081,0,0,24.5081,847.504,634.145)">
                <path id="path1_fill-path" d="M1.241,36.859L0.001,3.842C-0.039,2.751 0.797,1.827 1.886,1.759L29.969,0.004C31.077,-0.065 32.032,0.777 32.101,1.886C32.104,1.927 32.105,1.969 32.105,2.011L32.105,37.989C32.105,39.1 31.205,40 30.094,40C30.064,40 30.034,39.999 30.004,39.998L3.16,38.792C2.115,38.745 1.28,37.904 1.241,36.859Z" style="fill:rgb(124,21,227);fill-rule:nonzero;"/>
            </g>
            <g transform="matrix(24.3,0,0,24.3,782.604,638.769)">
                <path id="path1_fill-path1" serif:id="path1_fill-path" d="M1.241,36.859L0.001,3.842C-0.039,2.751 0.797,1.827 1.886,1.759L29.969,0.004C31.077,-0.065 32.032,0.777 32.101,1.886C32.104,1.927 32.105,1.969 32.105,2.011L32.105,37.989C32.105,39.1 31.205,40 30.094,40C30.064,40 30.034,39.999 30.004,39.998L3.16,38.792C2.115,38.745 1.28,37.904 1.241,36.859Z" style="fill:rgb(153,68,238);fill-rule:nonzero;"/>
            </g>
            <g transform="matrix(769.688,0,0,859.642,996.155,1428.62)">
                <path d="M0.347,-0.497L0.565,-0.567C0.516,-0.68 0.411,-0.718 0.319,-0.718C0.133,-0.737 0.007,-0.651 0.039,-0.478L0.039,-0.235C0.027,-0.061 0.161,0.026 0.319,0.01C0.46,-0.005 0.597,-0.072 0.597,-0.235L0.596,-0.381L0.529,-0.411L0.312,-0.411L0.312,-0.261L0.425,-0.261L0.425,-0.235C0.425,-0.125 0.218,-0.124 0.218,-0.235L0.218,-0.478C0.218,-0.571 0.308,-0.592 0.347,-0.497Z" style="fill:rgb(124,21,227);fill-rule:nonzero;"/>
            </g>
            <g transform="matrix(769.688,0,0,859.642,943.924,1429.08)">
                <path d="M0.415,-0.498L0.565,-0.567C0.516,-0.68 0.411,-0.718 0.319,-0.718C0.179,-0.718 0.039,-0.638 0.039,-0.478L0.039,-0.235C0.039,-0.072 0.179,0.01 0.319,0.01C0.461,0.01 0.597,-0.072 0.597,-0.235L0.597,-0.411L0.312,-0.411L0.312,-0.261L0.425,-0.261L0.425,-0.235C0.425,-0.125 0.218,-0.124 0.218,-0.235L0.218,-0.478C0.218,-0.571 0.376,-0.593 0.415,-0.498Z" style="fill:white;fill-rule:nonzero;"/>
            </g>
        </g>
    </g>
</svg>
