<?xml version="1.0" encoding="UTF-8" standalone="no"?>
<!DOCTYPE svg PUBLIC "-//W3C//DTD SVG 1.1//EN" "http://www.w3.org/Graphics/SVG/1.1/DTD/svg11.dtd">
<svg width="100%" height="100%" viewBox="0 0 2000 2500" version="1.1" xmlns="http://www.w3.org/2000/svg" xmlns:xlink="http://www.w3.org/1999/xlink" xml:space="preserve" xmlns:serif="http://www.serif.com/" style="fill-rule:evenodd;clip-rule:evenodd;stroke-linejoin:round;stroke-miterlimit:2;">
    <g transform="matrix(2.40329,0,0,2.40329,-1821.6,-1453.15)">
        <g id="path1_fill-path" transform="matrix(24.3,0,0,24.3,782.604,638.769)">
            <path d="M1.241,36.859L0.001,3.842C-0.039,2.751 0.797,1.827 1.886,1.759L29.969,0.004C31.077,-0.065 32.032,0.777 32.101,1.886C32.104,1.927 32.105,1.969 32.105,2.011L32.105,37.989C32.105,39.1 31.205,40 30.094,40C30.064,40 30.034,39.999 30.004,39.998L3.16,38.792C2.115,38.745 1.28,37.904 1.241,36.859Z" style="fill:rgb(153,68,238);fill-rule:nonzero;"/>
        </g>
        <g transform="matrix(0.895359,0,0,1,-626.53,151.741)">
            <text x="1753.99px" y="1277.34px" style="font-family:'UniSansDemo-HeavyCAPS', 'Uni Sans Demo';font-weight:700;font-size:859.642px;fill:white;">g</text>
        </g>
    </g>
</svg>
