<?xml version="1.0" encoding="UTF-8" standalone="no"?>
<!DOCTYPE svg PUBLIC "-//W3C//DTD SVG 1.1//EN" "http://www.w3.org/Graphics/SVG/1.1/DTD/svg11.dtd">
<svg width="100%" height="100%" viewBox="0 0 2000 2000" version="1.1" xmlns="http://www.w3.org/2000/svg" xmlns:xlink="http://www.w3.org/1999/xlink" xml:space="preserve" xmlns:serif="http://www.serif.com/" style="fill-rule:evenodd;clip-rule:evenodd;stroke-linejoin:round;stroke-miterlimit:1.41421;">
    <g transform="matrix(1.97422,0,0,1.97422,-979.092,-974.225)">
        <path d="M1332.12,1187.02C1277.72,1317.92 1148.58,1410.06 998.086,1410.06C798.532,1410.06 636.52,1248.04 636.52,1048.49C636.52,930.172 693.475,825.052 781.44,759.074C727.179,859.743 739.09,972.078 794.312,1092.05C796.849,932.099 861.781,799.096 988.606,692.824L988.605,692.824L988.615,692.816C990.966,690.846 993.339,688.884 995.734,686.932L996.319,686.93C1065.36,634.916 1139.42,599.413 1221.38,589.944C1248.83,618.23 1271.42,648.782 1289.87,680.699L1289.87,680.699L1289.89,680.73C1293.12,686.313 1296.22,691.938 1299.2,697.6C1385.81,860.411 1396.52,1051.28 1332.12,1187.02Z"/>
    </g>
</svg>
