<?xml version="1.0" encoding="UTF-8" standalone="no"?>
<!DOCTYPE svg PUBLIC "-//W3C//DTD SVG 1.1//EN" "http://www.w3.org/Graphics/SVG/1.1/DTD/svg11.dtd">
<svg width="100%" height="100%" viewBox="0 0 175 40" version="1.1" xmlns="http://www.w3.org/2000/svg" xmlns:xlink="http://www.w3.org/1999/xlink" xml:space="preserve" xmlns:serif="http://www.serif.com/" style="fill-rule:evenodd;clip-rule:evenodd;stroke-linejoin:round;stroke-miterlimit:2;">
    <g transform="matrix(0.0925926,0,0,0.0925926,80.7542,18.1481)">
        <g transform="matrix(0.444444,0,0,0.444444,-1205.14,-479.897)">
            <g id="path1_fill-path" transform="matrix(24.3,0,0,24.3,782.604,638.769)">
                <path d="M1.241,36.859L0.001,3.842C-0.039,2.751 0.797,1.827 1.886,1.759L29.969,0.004C31.077,-0.065 32.032,0.777 32.101,1.886C32.104,1.927 32.105,1.969 32.105,2.011L32.105,37.989C32.105,39.1 31.205,40 30.094,40C30.064,40 30.034,39.999 30.004,39.998L3.16,38.792C2.115,38.745 1.28,37.904 1.241,36.859Z" style="fill:rgb(153,68,238);fill-rule:nonzero;"/>
            </g>
            <g id="path1_fill-path1" serif:id="path1_fill-path" transform="matrix(24.3,0,0,24.3,782.604,638.769)">
                <path d="M1.241,36.859L0.001,3.842C-0.039,2.751 0.797,1.827 1.886,1.759L29.969,0.004C31.077,-0.065 32.032,0.777 32.101,1.886C32.104,1.927 32.105,1.969 32.105,2.011L32.105,37.989C32.105,39.1 31.205,40 30.094,40C30.064,40 30.034,39.999 30.004,39.998L3.16,38.792C2.115,38.745 1.28,37.904 1.241,36.859Z" style="fill:rgb(153,68,238);fill-rule:nonzero;"/>
            </g>
            <g transform="matrix(769.688,0,0,859.642,943.924,1429.08)">
                <path d="M0.404,-0.517C0.412,-0.507 0.427,-0.504 0.439,-0.509C0.468,-0.522 0.515,-0.544 0.543,-0.557C0.556,-0.563 0.561,-0.577 0.555,-0.588C0.502,-0.685 0.405,-0.718 0.319,-0.718C0.179,-0.718 0.039,-0.638 0.039,-0.478L0.039,-0.235C0.039,-0.072 0.179,0.01 0.319,0.01C0.461,0.01 0.597,-0.072 0.597,-0.235L0.597,-0.38C0.597,-0.388 0.593,-0.396 0.587,-0.402C0.58,-0.408 0.571,-0.411 0.562,-0.411L0.34,-0.411C0.332,-0.411 0.325,-0.408 0.32,-0.404C0.315,-0.399 0.312,-0.393 0.312,-0.386L0.312,-0.285C0.312,-0.272 0.324,-0.261 0.339,-0.261L0.425,-0.261L0.425,-0.235C0.425,-0.125 0.218,-0.124 0.218,-0.235L0.218,-0.478C0.218,-0.564 0.353,-0.589 0.404,-0.517Z" style="fill:white;fill-rule:nonzero;"/>
            </g>
        </g>
        <g transform="matrix(0.423267,0,0,0.439789,-680.211,-421.601)">
            <text x="610.987px" y="1295.94px" style="font-family:'GoogleSans-Bold', 'Google Sans', sans-serif;font-weight:700;font-size:859.642px;">G<tspan x="1301.85px " y="1295.94px ">r</tspan>ump<tspan x="3486.77px " y="1295.94px ">y</tspan></text>
        </g>
    </g>
</svg>
